<svg width="181" height="88" viewBox="0 0 181 88" fill="none" xmlns="http://www.w3.org/2000/svg">
<path d="M39.8546 87.1611V87.2236C39.7062 87.2549 39.5656 87.2705 39.4328 87.2705C39.1203 87.2705 38.8078 87.1494 38.4953 86.9111C37.8703 86.4502 37.5304 85.9619 37.4796 85.4424C37.4249 84.9307 37.4367 84.4307 37.5109 83.9424V83.6768C37.8234 81.1846 38.2804 78.7588 38.8859 76.3955C39.4874 74.04 40.1203 71.7236 40.7765 69.4424L40.8859 69.0205C41.4796 66.9775 42.2999 64.4971 43.3546 61.583C44.4171 58.6768 45.6124 55.5244 46.9484 52.1299C48.2804 48.7354 49.6671 45.2705 51.1046 41.7393C52.5421 38.2002 53.9562 34.751 55.3546 31.3955C56.7609 28.0322 58.0421 24.9385 59.1984 22.1143C60.3624 19.2822 61.3117 16.9111 62.0421 15.0049L63.8078 10.5986L64.2296 9.45801C64.4054 9.04395 64.5773 8.61426 64.7453 8.17676C64.921 7.73926 65.0773 7.29785 65.214 6.84863C65.5265 5.87988 65.7492 4.94238 65.8859 4.03613C65.8859 3.90332 65.8859 3.7002 65.8859 3.42676C65.8859 3.14551 65.7492 2.93848 65.4796 2.80176C65.3742 2.7627 65.2531 2.73926 65.1203 2.73926C64.8078 2.73926 64.4992 2.84082 64.1984 3.03613C63.9054 3.22363 63.6398 3.40723 63.4015 3.58301C63.2218 3.71973 63.0968 3.80176 63.0265 3.83301C62.4093 4.25098 61.796 4.69238 61.1828 5.16113C60.5773 5.62988 59.9835 6.11035 59.4015 6.59863L58.9796 6.95801C58.0734 7.75098 57.1906 8.58301 56.339 9.45801C55.4953 10.3252 54.6749 11.1885 53.8859 12.0518L53.7296 12.208C53.1749 12.7939 52.3937 13.6299 51.3859 14.7236C50.3859 15.8174 49.2453 17.0518 47.964 18.4268C46.6828 19.7939 45.3624 21.2158 44.0109 22.6924C42.6554 24.1611 41.3546 25.5791 40.1046 26.9424C38.8546 28.3096 37.7218 29.5361 36.714 30.6299C35.714 31.7236 34.9562 32.5674 34.4484 33.1611C33.2999 34.4424 32.1554 35.7236 31.0109 37.0049C29.8625 38.2861 28.7179 39.5674 27.5734 40.8486C27.1671 41.2979 26.7179 41.7314 26.2296 42.1455C25.7375 42.5635 25.2687 42.9658 24.8234 43.3486C24.4054 43.6611 24.0421 43.9385 23.7296 44.1768C23.3117 44.5635 22.8781 44.7549 22.4328 44.7549C22.1515 44.7549 21.8546 44.6689 21.5421 44.4893C20.7804 44.001 20.4523 43.1689 20.5578 41.9893C20.7023 40.9893 20.8546 39.9814 21.0109 38.958C21.1671 37.9268 21.3273 36.9268 21.4953 35.958L21.6984 34.9736C21.7687 34.4541 21.8585 33.9541 21.964 33.4736C22.0656 32.9854 22.171 32.4814 22.2765 31.958C22.5148 30.6455 22.7531 29.3096 22.9953 27.9424C23.2453 26.5674 23.4054 25.1689 23.4796 23.7393C23.5109 22.9502 23.4562 22.2041 23.3234 21.5049C23.2492 21.2666 23.1867 21.0518 23.1359 20.8643C23.0812 20.6689 23.0187 20.4697 22.9484 20.2705C22.7804 19.958 22.5421 19.8018 22.2296 19.8018C21.8742 19.8018 21.5031 19.958 21.1203 20.2705C20.7453 20.5752 20.3742 20.9189 20.0109 21.3018C19.6437 21.6885 19.3781 22.001 19.214 22.2393C16.8585 25.1455 14.7843 28.2783 12.9953 31.6299C11.214 34.9736 9.52651 38.3252 7.93276 41.6768C7.79604 41.958 7.57729 42.3955 7.27651 42.9893C6.98354 43.5752 6.68276 44.1768 6.37026 44.8018C6.05776 45.4268 5.79604 45.9658 5.58901 46.4111C5.37808 46.8604 5.27651 47.083 5.27651 47.083C4.82729 47.9893 4.38589 48.8799 3.94839 49.7549C3.5187 50.6377 3.07729 51.5361 2.62026 52.4424C2.55776 52.5127 2.51479 52.583 2.49526 52.6455C2.47183 52.7158 2.44839 52.79 2.41714 52.8643C2.31167 53.0713 2.2062 53.2744 2.10464 53.4736C1.99917 53.6807 1.86245 53.8369 1.69839 53.9424C1.59292 54.0127 1.48745 54.0518 1.38589 54.0518C1.17495 54.0518 0.999169 53.9111 0.854638 53.6299C0.749169 53.4189 0.721826 53.1963 0.776513 52.958C0.827294 52.7158 0.905419 52.4932 1.01089 52.2861C1.0812 52.1494 1.13589 52.0439 1.16714 51.9736C2.2062 48.9658 3.38589 45.8408 4.69839 42.5986C6.0187 39.3486 7.53042 36.1143 9.22964 32.8955C10.925 29.6768 12.8859 26.5596 15.1046 23.5361C16.5929 21.4971 18.0812 19.9541 19.5734 18.9111C20.3312 18.4229 21.0265 18.1768 21.6515 18.1768C22.1398 18.1768 22.6085 18.3018 23.0578 18.5518C23.7531 18.9268 24.171 19.4229 24.3078 20.0361C24.4406 20.6416 24.5109 21.2861 24.5109 21.9736C24.5109 23.2979 24.4328 24.5674 24.2765 25.7861C24.1203 26.9971 23.9718 28.1143 23.839 29.1455C23.6281 30.2627 23.421 31.3643 23.214 32.458C23.0031 33.5439 22.796 34.6416 22.589 35.7549C22.4523 36.3486 22.3234 36.9346 22.1984 37.5049C22.0734 38.0674 21.9562 38.6455 21.8546 39.2393L21.8078 39.5049C21.7765 39.7783 21.7335 40.0518 21.6828 40.333C21.6281 40.6064 21.6046 40.8799 21.6046 41.1611C21.5617 41.6104 21.55 42.0283 21.5734 42.4111C21.5929 42.7861 21.7218 43.0635 21.964 43.2393L22.0109 43.2861L22.2765 43.3955C22.4835 43.3955 22.6984 43.3174 22.9171 43.1611C23.1437 43.0049 23.3625 42.8408 23.5734 42.6611L23.7296 42.5049C24.6671 41.7861 25.6203 40.9229 26.589 39.9111C27.1398 39.2861 27.675 38.6611 28.1984 38.0361C28.7179 37.4111 29.2218 36.7705 29.714 36.1143C30.0265 35.7705 30.3156 35.4189 30.589 35.0518C30.8703 34.6885 31.1671 34.333 31.4796 33.9893C32.4796 32.7705 33.7062 31.333 35.1671 29.6768C36.6242 28.0127 38.2023 26.2354 39.9015 24.3486C41.5968 22.4541 43.3468 20.5361 45.1515 18.5986C46.9523 16.6611 48.7179 14.7939 50.4484 12.9893C52.1867 11.1885 53.8156 9.54395 55.339 8.05176C56.8585 6.56348 58.1749 5.34863 59.2921 4.41113C60.0187 3.78613 60.7687 3.18848 61.5421 2.61426C62.3234 2.04395 63.1828 1.56738 64.1203 1.19238C64.5343 1.0166 64.9015 0.926758 65.214 0.926758C65.7335 0.926758 66.2179 1.11426 66.6671 1.48926C67.4679 2.11426 67.8312 2.96582 67.7609 4.03613C67.6984 5.0791 67.5343 6.05176 67.2765 6.95801C67.0148 7.85645 66.7453 8.66895 66.464 9.39551C65.6593 11.583 64.8273 13.7627 63.964 15.9268C63.0968 18.0947 62.2492 20.2354 61.4171 22.3486C60.8937 23.6299 60.1749 25.3447 59.2609 27.4893C58.3429 29.6377 57.2999 32.0518 56.1359 34.7393C54.9796 37.4268 53.7921 40.208 52.5734 43.083C51.3624 45.958 50.1984 48.7549 49.0734 51.4736C47.9484 54.2002 46.9562 56.665 46.1046 58.8643C45.2609 61.0596 44.6281 62.8369 44.214 64.1924L43.4796 66.4736C42.6867 69.1807 41.9015 71.9189 41.1203 74.6924C40.339 77.4619 39.7374 80.3057 39.3234 83.2236C39.2921 83.3174 39.2648 83.4033 39.2453 83.4893C39.2335 83.583 39.2062 83.6807 39.1671 83.7861C39.0617 84.1689 39.0187 84.5986 39.0421 85.0674C39.0617 85.5361 39.3859 86.0244 40.0109 86.5361C40.1437 86.6064 40.214 86.6963 40.214 86.8018C40.214 86.9775 40.0929 87.0986 39.8546 87.1611Z" fill="#E6C068"/>
<path d="M77.323 40.6924C77.6043 40.7236 77.7605 40.7783 77.7918 40.8486C77.8308 41.0596 77.7136 41.251 77.4324 41.4268C77.1511 41.5947 76.8386 41.7393 76.4949 41.8643C76.1511 41.9893 75.8894 42.0674 75.7136 42.0986C74.8152 42.3721 73.9168 42.5049 73.0105 42.5049C72.1746 42.5049 71.3621 42.4229 70.573 42.2549C70.155 42.1533 69.7918 42.0986 69.4793 42.0986C68.6433 42.0986 68.0418 42.5322 67.6668 43.3955C66.655 45.6143 65.0574 47.4346 62.8699 48.8486C62.5964 49.0283 62.28 49.1924 61.9168 49.3486C61.5496 49.5049 61.1589 49.583 60.7449 49.583C60.2214 49.583 59.7214 49.4268 59.2449 49.1143C58.5496 48.6689 58.1472 48.1143 58.0418 47.458C57.9402 46.7939 57.9011 46.1143 57.9324 45.4268C58.1433 41.8877 59.53 38.8018 62.1043 36.1768C62.4168 35.8643 62.7214 35.5518 63.0261 35.2393C63.3386 34.9268 63.6511 34.6143 63.9636 34.3018C64.4832 33.8564 65.0574 33.6299 65.6824 33.6299C66.0964 33.6299 66.5144 33.7158 66.9324 33.8799C67.9011 34.3291 68.5574 35.2158 68.9011 36.5361C69.2136 37.6416 69.2332 38.7158 68.9636 39.7549C68.8152 40.3486 68.8699 40.7822 69.1199 41.0518C69.3894 41.3643 69.8894 41.5439 70.6199 41.583C71.0652 41.583 71.4988 41.583 71.9168 41.583C72.9246 41.583 73.8464 41.5127 74.6824 41.3643C74.8464 41.3643 75.0183 41.333 75.198 41.2705C75.3738 41.2002 75.5457 41.1104 75.7136 41.0049C75.9207 40.9346 76.1355 40.8564 76.3543 40.7705C76.5808 40.6885 76.823 40.6455 77.073 40.6455C77.1746 40.6455 77.2605 40.6611 77.323 40.6924ZM66.573 41.208C66.573 41.1064 66.573 41.001 66.573 40.8955C66.4675 40.7314 66.3621 40.5947 66.2605 40.4893C66.155 40.3877 66.0496 40.2822 65.948 40.1768C65.698 39.9268 65.4519 39.6924 65.2136 39.4736C64.9714 39.2471 64.7136 39.0127 64.4324 38.7705C64.3699 38.7393 64.2644 38.6377 64.1199 38.458C63.9832 38.2822 63.8386 38.126 63.6824 37.9893C63.5261 37.8564 63.3582 37.7861 63.1824 37.7861C62.9714 37.7861 62.7839 37.8916 62.6199 38.0986C61.6082 39.5166 60.78 40.9189 60.1355 42.3018C59.4988 43.6885 59.1668 45.2158 59.1355 46.8799C59.1355 47.4346 59.2918 47.8643 59.6043 48.1768C59.8113 48.3564 60.073 48.4424 60.3855 48.4424C60.6238 48.4424 60.8855 48.3721 61.1668 48.2236C62.655 47.5049 63.7957 46.5205 64.5886 45.2705C65.3894 44.0205 66.03 42.8252 66.5105 41.6768C66.5496 41.6143 66.573 41.458 66.573 41.208ZM66.9793 39.1299C67.0808 38.6846 67.1355 38.2236 67.1355 37.7549C67.1355 37.2861 66.8933 36.8291 66.4168 36.3799C66.2683 36.2041 66.0769 36.1143 65.8386 36.1143C65.5964 36.1143 65.3621 36.2197 65.1355 36.4268C64.9168 36.6377 64.7683 36.8291 64.698 37.0049C64.5183 37.5283 64.5886 37.9697 64.9011 38.333C65.2136 38.7002 65.5613 39.0361 65.948 39.3486C66.0496 39.4111 66.1589 39.4893 66.2761 39.583C66.4011 39.6689 66.5144 39.7627 66.6199 39.8643L66.823 40.0674L66.8855 39.8643C66.8855 39.7197 66.9011 39.5908 66.9324 39.4736C66.9636 39.3486 66.9793 39.2354 66.9793 39.1299Z" fill="#E6C068"/>
<path d="M104.931 40.3799C105.138 40.5166 105.259 40.6572 105.29 40.8018C105.329 40.9385 105.306 41.0674 105.212 41.1924C105.126 41.3096 105.032 41.4189 104.931 41.5205C104.794 41.6689 104.712 41.7705 104.681 41.833C101.794 46.2705 97.7197 49.9775 92.4619 52.958C91.8994 53.2705 91.1846 53.4268 90.3213 53.4268H90.2275C89.3525 53.4268 88.6885 53.2002 88.2432 52.7549C87.7627 52.3057 87.5244 51.6299 87.5244 50.7236C87.5244 49.9307 87.6807 49.2158 87.9932 48.583C88.3057 47.9385 88.6338 47.3174 88.9775 46.7236L89.4932 45.8955C89.5947 45.6885 89.7041 45.4814 89.8213 45.2705C89.9463 45.0635 90.0596 44.8564 90.165 44.6455L90.2275 44.4893C90.29 44.3564 90.3447 44.1846 90.3994 43.9736C90.4502 43.7666 90.3564 43.5361 90.1182 43.2861C89.8369 43.0166 89.5088 42.8799 89.1338 42.8799C88.9854 42.8799 88.8291 42.9111 88.665 42.9736C87.9658 43.1221 87.2783 43.2861 86.6025 43.4736C85.9346 43.6611 85.251 43.8604 84.5557 44.0674C83.6885 44.3799 82.8447 44.7471 82.0244 45.1611C81.2119 45.5791 80.4229 46.0127 79.665 46.458C79.3213 46.6377 78.9814 46.8252 78.6494 47.0205C78.3252 47.208 77.9932 47.3877 77.6494 47.5518L77.4307 47.6611C77.2939 47.7666 77.1377 47.8564 76.9619 47.9268C76.7939 47.9893 76.6221 48.0205 76.4463 48.0205C76.1338 48.0205 75.8057 47.8877 75.4619 47.6143C75.0791 47.2627 74.8838 46.9385 74.8838 46.6455C74.8838 46.3564 74.9229 46.0518 74.9932 45.7393L75.04 45.5205C75.665 42.6885 76.7197 40.1611 78.2119 37.9424L78.3213 37.7861C78.3838 37.6416 78.4658 37.5127 78.5713 37.3955C78.6729 37.2705 78.7979 37.208 78.9463 37.208C79.0479 37.208 79.1533 37.2471 79.2588 37.3174C79.4971 37.4229 79.6533 37.5596 79.7275 37.7236C79.8916 38.0791 79.8994 38.4893 79.7432 38.958C79.5869 39.4189 79.4229 39.8018 79.2588 40.1143C79.1533 40.3252 79.1025 40.4658 79.1025 40.5361L77.2744 45.2705C77.2432 45.333 77.2041 45.4424 77.165 45.5986C77.1338 45.7549 77.1885 45.8877 77.3369 45.9893C77.4697 46.0947 77.6416 46.1455 77.8525 46.1455C78.0596 46.1455 78.2979 46.1064 78.5713 46.0205C78.8525 45.9385 79.0439 45.8604 79.1494 45.7861C79.3252 45.7158 79.4814 45.6377 79.6182 45.5518C79.751 45.4697 79.8916 45.376 80.04 45.2705C80.2041 45.126 80.3682 45.0049 80.5244 44.9111C80.6807 44.8096 80.8447 44.7197 81.0244 44.6455C81.5752 44.3643 82.1377 44.1064 82.7119 43.8643C83.2822 43.626 83.8604 43.3799 84.4463 43.1299C85.8721 42.5479 87.2119 42.1689 88.4619 41.9893C88.6572 41.958 88.8447 41.9424 89.0244 41.9424C89.9307 41.9424 90.6416 42.2354 91.165 42.8174C91.7471 43.4854 91.8994 44.3018 91.6182 45.2705C91.4814 45.8564 91.2979 46.4268 91.0713 46.9893C90.8525 47.5439 90.6377 48.0947 90.4307 48.6455C90.2939 48.958 90.165 49.2705 90.04 49.583C89.915 49.8955 89.7822 50.208 89.6494 50.5205L89.6025 50.7236C89.4971 50.8994 89.4229 51.1064 89.3838 51.3486C89.3525 51.5869 89.4385 51.8096 89.6494 52.0205C89.9307 52.3018 90.2432 52.4424 90.5869 52.4424C90.7197 52.4424 90.8564 52.4189 90.9932 52.3799C91.1377 52.3486 91.2783 52.3174 91.415 52.2861C93.0479 51.7939 94.4697 51.0713 95.6807 50.1143C96.8877 49.165 97.9814 48.208 98.9619 47.2393C99.751 46.4502 100.606 45.5596 101.524 44.5674C102.438 43.5791 103.212 42.458 103.837 41.208L103.946 41.1143C104.017 40.9385 104.11 40.7549 104.228 40.5674C104.353 40.3721 104.501 40.2705 104.681 40.2705C104.743 40.2705 104.825 40.3096 104.931 40.3799Z" fill="#E6C068"/>
<path d="M121.571 41.4268C121.809 41.2822 122.086 41.208 122.399 41.208C122.43 41.3877 122.356 41.5518 122.18 41.708C122.012 41.8643 121.86 42.0127 121.727 42.1455L121.368 42.4111C120.149 43.3486 118.899 44.2627 117.618 45.1455C116.336 46.0205 114.954 46.7471 113.477 47.3174C112.008 47.8916 110.372 48.1768 108.571 48.1768H108.368C106.594 48.1768 105.227 47.6416 104.258 46.5674C103.395 45.5596 103.098 44.3447 103.368 42.9268C104.344 38.1768 107.434 35.1104 112.633 33.7236C112.903 33.6611 113.18 33.6299 113.461 33.6299C114.293 33.6299 114.969 33.9893 115.493 34.708C115.899 35.2705 116.024 35.751 115.868 36.1455C115.719 36.5439 115.493 36.9502 115.18 37.3643C113.793 39.0635 111.5 40.1572 108.305 40.6455C107.168 40.8135 106.422 41.2627 106.071 41.9893C105.727 42.7197 105.465 43.501 105.29 44.333L105.243 44.6924C105.137 45.1846 105.227 45.6377 105.508 46.0518C105.883 46.5752 106.485 46.9541 107.321 47.1924C107.946 47.3721 108.606 47.458 109.305 47.458C109.856 47.458 110.391 47.4072 110.915 47.3018C111.434 47.2002 111.985 47.0596 112.571 46.8799C114.415 46.3604 116.25 45.4736 118.086 44.2236C118.875 43.7041 119.672 43.0791 120.477 42.3486C120.547 42.3174 120.618 42.2705 120.68 42.208C120.75 42.1377 120.825 42.0635 120.899 41.9893C121 41.8877 121.106 41.7939 121.211 41.708C121.313 41.626 121.434 41.5322 121.571 41.4268ZM108.93 38.7705L108.571 39.1924L109.149 39.0361C110.356 38.7549 111.383 38.3916 112.227 37.9424C113.079 37.4854 113.821 36.7549 114.446 35.7549L114.649 35.333L114.18 35.4893C113.18 35.8018 112.247 36.1924 111.383 36.6611C110.516 37.1299 109.7 37.833 108.93 38.7705Z" fill="#E6C068"/>
<path d="M32.2471 80.4395C31.9736 80.4395 31.6846 80.459 31.3721 80.502C31.0596 80.541 30.8564 80.5723 30.7627 80.5957L30.8408 80.002C31.2471 79.9199 31.5166 79.8066 31.6533 79.6582C31.7861 79.502 31.8564 79.2441 31.8564 78.877L31.8721 73.4238C31.8721 73.1426 31.833 72.9551 31.7627 72.8613C31.7002 72.7676 31.5752 72.7207 31.3877 72.7207C31.3018 72.7207 31.2158 72.7285 31.1221 72.7363C31.0361 72.7363 30.9814 72.7363 30.9502 72.7363L30.9189 72.6895L31.0127 72.127C31.1143 72.127 31.3096 72.1348 31.5908 72.1426C31.8799 72.1543 32.1689 72.1582 32.4502 72.1582C32.751 72.1582 33.0518 72.1543 33.3564 72.1426C33.6689 72.1348 33.8799 72.123 33.9971 72.1113C34.8174 72.1113 35.4502 72.2832 35.8877 72.627C36.3252 72.9629 36.5439 73.4473 36.5439 74.0801C36.5439 74.5176 36.4111 74.9082 36.1533 75.252C35.8916 75.5957 35.5205 75.873 35.0439 76.0801C35.6768 76.2285 36.1729 76.4707 36.5283 76.8145C36.8799 77.1582 37.0596 77.5762 37.0596 78.0645C37.0596 78.502 36.9189 78.916 36.6377 79.2988C36.3564 79.6855 35.9814 79.9941 35.5127 80.2207C35.0439 80.4473 34.5361 80.5645 33.9971 80.5645C33.7666 80.5645 33.501 80.541 33.2002 80.502C32.7002 80.459 32.3799 80.4395 32.2471 80.4395ZM32.8564 75.877C32.9893 75.8887 33.208 75.9082 33.5127 75.9395C33.8252 75.9629 34.0791 75.9785 34.2783 75.9863C34.2783 76.0098 34.3877 75.9629 34.6064 75.8457C34.833 75.7324 35.0361 75.5488 35.2158 75.2988C35.4033 75.0488 35.4971 74.7168 35.4971 74.2988C35.4971 73.748 35.3096 73.3379 34.9346 73.0645C34.5674 72.7949 33.9971 72.6582 33.2158 72.6582C33.1221 72.6582 33.0596 72.6816 33.0283 72.7207C33.0049 72.7637 32.9893 72.8457 32.9814 72.9707C32.9268 73.7949 32.8877 74.7637 32.8564 75.877ZM32.7783 79.002C32.7783 79.3262 32.8877 79.5605 33.1064 79.7051C33.333 79.8418 33.7197 79.9082 34.2627 79.9082C34.7822 79.9082 35.1885 79.7637 35.4814 79.4707C35.7822 79.1816 35.9346 78.791 35.9346 78.2988C35.9346 77.8301 35.7861 77.4473 35.4971 77.1426C35.2041 76.8418 34.7666 76.6387 34.1846 76.5332L32.8408 76.5645L32.7783 79.002Z" fill="#E6C068"/>
<path d="M51.8438 78.2676C51.6875 78.9668 51.5664 79.6973 51.4844 80.4551L51.4219 80.5332C49.5977 80.4707 48.2852 80.4395 47.4844 80.4395C46.8359 80.4395 46.2344 80.4785 45.6719 80.5645L45.75 79.9707C46.1445 79.9199 46.4102 79.8223 46.5469 79.6738C46.6914 79.5176 46.7656 79.252 46.7656 78.877L46.7812 73.4238C46.7812 73.1426 46.7422 72.9551 46.6719 72.8613C46.6094 72.7676 46.4844 72.7207 46.2969 72.7207L45.8594 72.7363L45.8281 72.6895L45.9219 72.127C46.8047 72.1504 47.4102 72.1582 47.7344 72.1582C48.7656 72.1582 49.5664 72.1504 50.1406 72.127C50.7109 72.1074 51.207 72.0645 51.625 72.002L51.6719 72.0801C51.5156 72.7676 51.4141 73.4863 51.375 74.2363L50.75 74.2832L50.7656 73.7363C50.7656 73.4355 50.7227 73.2285 50.6406 73.1113C50.5664 72.9863 50.3984 72.9082 50.1406 72.877C49.8906 72.8379 49.4375 72.8145 48.7812 72.8145C48.4766 72.8145 48.2695 72.8262 48.1562 72.8457C48.0391 72.8574 47.9688 72.8926 47.9375 72.9551C47.9062 73.0176 47.8828 73.1387 47.875 73.3145L47.7656 75.8301L49.1094 75.8457C49.4414 75.8457 49.9688 75.7988 50.6875 75.7051L50.75 75.7676L50.5625 76.5332C49.6016 76.5137 49 76.502 48.75 76.502C48.457 76.502 48.125 76.5332 47.75 76.5957L47.6875 79.0801C47.6875 79.3301 47.707 79.5098 47.75 79.6113C47.8008 79.7051 47.8906 79.7754 48.0156 79.8145C48.1484 79.8457 48.3828 79.8613 48.7188 79.8613C49.4453 79.8613 49.9609 79.8262 50.2656 79.752C50.5781 79.6816 50.7969 79.541 50.9219 79.3301C51.0547 79.123 51.1602 78.7676 51.2344 78.2676L51.7969 78.2051L51.8438 78.2676Z" fill="#E6C068"/>
<path d="M64.0332 80.4707L64.0801 79.9707C64.5176 79.9395 64.8184 79.8887 64.9863 79.8145C65.1504 79.7441 65.2363 79.627 65.2363 79.4707C65.2363 79.3066 65.1973 79.0957 65.127 78.8457L64.6895 77.4395C64.4785 77.4316 64.0332 77.4238 63.3457 77.4238C62.9277 77.4238 62.4551 77.4629 61.9238 77.5332L61.4395 78.877C61.3652 79.1191 61.3301 79.291 61.3301 79.3926C61.3301 79.5801 61.3848 79.7168 61.502 79.7988C61.627 79.8848 61.8301 79.9238 62.1113 79.9238H62.8457L62.877 79.9707L62.7988 80.5332C62.6934 80.5215 62.4551 80.502 62.0801 80.4707C61.7051 80.4473 61.3379 80.4395 60.9863 80.4395C60.6621 80.4395 60.3652 80.4434 60.0957 80.4551C59.8223 80.4629 59.6504 80.4707 59.5645 80.4707L59.6582 79.8613C59.8965 79.8418 60.0879 79.7598 60.2363 79.6113C60.3926 79.4668 60.5371 79.2168 60.6738 78.8613L63.2051 72.2207L64.0332 72.002H64.127C64.1777 72.2129 64.3066 72.6973 64.5176 73.4551C64.7363 74.2051 64.9941 75.0957 65.2988 76.127C65.6113 77.1582 65.9121 78.1074 66.2051 78.9707C66.3066 79.2949 66.4434 79.5254 66.6113 79.6582C66.7871 79.7832 67.0684 79.8613 67.4551 79.8926L67.4707 79.9395L67.377 80.4707C67.2715 80.4707 67.084 80.4629 66.8145 80.4551C66.541 80.4434 66.2715 80.4395 66.002 80.4395C65.584 80.4395 65.1816 80.4551 64.7988 80.4863C64.4121 80.5254 64.166 80.5527 64.0645 80.5645L64.0332 80.4707ZM63.2988 76.8926C63.6113 76.8926 64.0176 76.873 64.5176 76.8301L63.4863 73.4238H63.3926L62.1582 76.8926H63.2988Z" fill="#E6C068"/>
<path d="M78.7422 80.5957C77.8359 80.5957 77.1328 80.3457 76.6328 79.8457C76.1406 79.3457 75.8984 78.6387 75.8984 77.7207V73.4238C75.8984 73.1426 75.8594 72.9551 75.7891 72.8613C75.7266 72.7676 75.6016 72.7207 75.4141 72.7207C75.3281 72.7207 75.2422 72.7285 75.1484 72.7363C75.0625 72.7363 75.0078 72.7363 74.9766 72.7363L74.9453 72.6895L75.0391 72.127C75.1406 72.127 75.3398 72.1348 75.6328 72.1426C75.9219 72.1543 76.2148 72.1582 76.5078 72.1582C76.7344 72.1582 76.9961 72.1426 77.2891 72.1113C77.5898 72.0801 77.7812 72.0605 77.8672 72.0488L77.8203 72.627C77.4961 72.6699 77.2773 72.7441 77.1641 72.8457C77.0586 72.9395 77 73.1113 76.9922 73.3613L76.8828 77.1895C76.8828 78.0449 77.0703 78.7051 77.4453 79.1738C77.8203 79.6348 78.3555 79.8613 79.0547 79.8613C79.7617 79.8613 80.3047 79.6738 80.6797 79.2988C81.0547 78.916 81.2422 78.3691 81.2422 77.6582C81.2305 76.9629 81.2148 76.1699 81.1953 75.2832C81.1836 74.4004 81.1719 73.7793 81.1641 73.4238C81.1406 73.123 81.1016 72.9316 81.0391 72.8457C80.9844 72.7637 80.8672 72.7207 80.6797 72.7207C80.5742 72.7207 80.4648 72.7285 80.3516 72.7363C80.2344 72.7363 80.1562 72.7363 80.1172 72.7363L80.1016 72.6895L80.1797 72.127C80.2812 72.127 80.4805 72.1348 80.7734 72.1426C81.0625 72.1543 81.3555 72.1582 81.6484 72.1582C81.8867 72.1582 82.1367 72.1426 82.3984 72.1113C82.668 72.0801 82.8398 72.0605 82.9141 72.0488L82.8672 72.627C82.6055 72.6582 82.4141 72.7012 82.2891 72.752C82.1641 72.7949 82.0742 72.8613 82.0234 72.9551C81.9805 73.0488 81.9609 73.1855 81.9609 73.3613V77.7363C81.9609 78.6426 81.6797 79.3457 81.1172 79.8457C80.5547 80.3457 79.7617 80.5957 78.7422 80.5957Z" fill="#E6C068"/>
<path d="M92.2266 79.9395C92.6523 79.9004 92.9492 79.8418 93.1172 79.7676C93.2812 79.6973 93.3906 79.5645 93.4453 79.377C93.4961 79.1816 93.5234 78.8301 93.5234 78.3301V72.6582C92.7812 72.6895 92.2773 72.7363 92.0078 72.7988C91.7461 72.8535 91.5703 72.9785 91.4766 73.1738C91.3828 73.3613 91.2969 73.7363 91.2266 74.2988L90.6016 74.3613C90.7031 73.541 90.7734 72.791 90.8047 72.1113L90.9141 72.002L92.0078 72.1426H96.0234L97.1328 72.002L97.2578 72.1113C97.2773 72.8223 97.3398 73.5488 97.4453 74.2988L96.8359 74.3613C96.7422 73.791 96.6484 73.4043 96.5547 73.2051C96.4609 72.998 96.2891 72.8691 96.0391 72.8145C95.7969 72.752 95.3281 72.7012 94.6328 72.6582C94.5781 73.1816 94.5312 74.1035 94.4922 75.4238C94.4492 76.7363 94.4297 77.9238 94.4297 78.9863C94.4297 79.3105 94.4844 79.541 94.6016 79.6738C94.7148 79.7988 94.9062 79.8613 95.1797 79.8613C95.4297 79.8613 95.6641 79.8535 95.8828 79.8301L95.9297 79.877L95.8047 80.4707H95.3828L93.8984 80.4395C93.418 80.4395 92.8242 80.4551 92.1172 80.4863L92.2266 79.9395Z" fill="#E6C068"/>
<path d="M106.691 80.002C107.004 79.9395 107.227 79.8613 107.363 79.7676C107.496 79.6738 107.586 79.5449 107.629 79.377C107.68 79.2129 107.707 78.9512 107.707 78.5957V78.0176C107.707 77.748 107.68 77.5137 107.629 77.3145C107.574 77.1074 107.477 76.8535 107.332 76.5488L106.16 74.1738C105.93 73.7168 105.77 73.4082 105.676 73.252C105.582 73.0879 105.445 72.9551 105.27 72.8613C105.09 72.7676 104.84 72.7051 104.52 72.6738L104.488 72.627L104.566 72.127C104.66 72.127 104.84 72.1348 105.113 72.1426C105.383 72.1543 105.68 72.1582 106.004 72.1582C106.305 72.1582 106.652 72.1426 107.051 72.1113C107.457 72.0801 107.723 72.0605 107.848 72.0488L107.879 72.1426L107.848 72.5957C107.449 72.6387 107.184 72.6895 107.051 72.752C106.926 72.8145 106.863 72.9199 106.863 73.0645C106.863 73.1816 106.965 73.4941 107.176 74.002C107.395 74.502 107.617 74.998 107.848 75.4863C108.074 75.9668 108.23 76.2793 108.316 76.4238H108.379L109.863 73.6738C109.996 73.416 110.066 73.1973 110.066 73.0176C110.066 72.791 109.793 72.6582 109.254 72.627L109.223 72.5801L109.301 72.0645C109.402 72.0762 109.617 72.0957 109.941 72.127C110.273 72.1504 110.539 72.1582 110.738 72.1582C110.945 72.1582 111.176 72.1543 111.426 72.1426C111.684 72.1348 111.855 72.123 111.941 72.1113L111.988 72.2051L111.91 72.6738C111.637 72.7285 111.426 72.7988 111.27 72.8926C111.113 72.9863 110.973 73.1191 110.848 73.2832C110.73 73.4512 110.566 73.7324 110.348 74.127C110.293 74.2324 110.246 74.3105 110.207 74.3613L108.91 76.6582C108.793 76.8574 108.723 77.0801 108.691 77.3301C108.66 77.5801 108.637 78.041 108.629 78.7051V78.9863C108.617 79.3223 108.652 79.5488 108.738 79.6738C108.82 79.7988 108.973 79.8613 109.191 79.8613C109.336 79.8613 109.465 79.8613 109.582 79.8613C109.707 79.8535 109.789 79.8418 109.832 79.8301L109.863 79.877L109.738 80.4707C109.621 80.4707 109.398 80.4629 109.066 80.4551C108.742 80.4434 108.418 80.4395 108.098 80.4395C107.824 80.4395 107.535 80.459 107.223 80.502C106.91 80.541 106.707 80.5723 106.613 80.5957L106.691 80.002Z" fill="#E6C068"/>
<path d="M133.009 80.5957C132.228 80.5957 131.54 80.4355 130.946 80.1113C130.36 79.7793 129.907 79.3105 129.587 78.7051C129.274 78.1035 129.118 77.3926 129.118 76.5801C129.118 75.7168 129.31 74.9355 129.696 74.2363C130.091 73.541 130.634 72.9941 131.321 72.5957C132.009 72.2012 132.79 72.002 133.665 72.002C133.978 72.002 134.298 72.0293 134.634 72.0801C134.966 72.123 135.247 72.1699 135.478 72.2207C135.716 72.2637 135.86 72.2949 135.915 72.3145L135.978 72.3926C135.954 72.4473 135.923 72.5723 135.884 72.7676C135.853 72.9668 135.81 73.2285 135.759 73.5488C135.704 73.873 135.669 74.2129 135.649 74.5645L135.024 74.6113C135.032 74.5723 135.044 74.4941 135.056 74.377C135.063 74.2637 135.071 74.127 135.071 73.9707C135.071 73.1699 134.431 72.7676 133.149 72.7676C132.575 72.7676 132.071 72.9082 131.634 73.1895C131.204 73.4629 130.872 73.8535 130.634 74.3613C130.403 74.873 130.29 75.4668 130.29 76.1426C130.29 76.9043 130.415 77.5723 130.665 78.1426C130.915 78.7168 131.263 79.1582 131.712 79.4707C132.157 79.7832 132.681 79.9395 133.274 79.9395C133.856 79.9395 134.325 79.7754 134.681 79.4395C135.044 79.1074 135.31 78.5918 135.478 77.8926L136.103 77.8457C136.079 77.9707 136.024 78.2598 135.931 78.7051C135.845 79.1543 135.79 79.5723 135.759 79.9551L135.681 80.0801C135.681 80.0918 135.544 80.1426 135.274 80.2363C135.013 80.3223 134.685 80.4004 134.29 80.4707C133.892 80.5527 133.466 80.5957 133.009 80.5957Z" fill="#E6C068"/>
<path d="M144.857 79.9707C145.189 79.9199 145.42 79.8223 145.545 79.6738C145.67 79.5176 145.732 79.252 145.732 78.877L145.748 73.4238C145.748 73.1426 145.709 72.9551 145.639 72.8613C145.576 72.7676 145.451 72.7207 145.264 72.7207C145.178 72.7207 145.092 72.7285 144.998 72.7363C144.912 72.7363 144.857 72.7363 144.826 72.7363L144.795 72.6895L144.889 72.127C144.99 72.127 145.186 72.1348 145.467 72.1426C145.756 72.1543 146.049 72.1582 146.342 72.1582C146.58 72.1582 146.846 72.1426 147.139 72.1113C147.439 72.0801 147.639 72.0605 147.732 72.0488L147.686 72.627C147.393 72.6582 147.193 72.7168 147.092 72.7988C146.986 72.873 146.924 72.9629 146.904 73.0645C146.881 73.1699 146.857 73.4238 146.826 73.8301C146.771 74.5723 146.732 75.416 146.701 76.3613C146.678 77.2988 146.67 78.127 146.67 78.8457C146.67 79.1582 146.693 79.3848 146.748 79.5176C146.799 79.6543 146.893 79.748 147.029 79.7988C147.174 79.8418 147.424 79.8613 147.779 79.8613C148.311 79.8613 148.693 79.8223 148.936 79.7363C149.186 79.6426 149.373 79.4707 149.498 79.2207C149.623 78.9707 149.736 78.5645 149.842 78.002L150.42 77.9395L150.451 78.002C150.428 78.1504 150.377 78.4668 150.295 78.9551C150.209 79.4355 150.139 79.9395 150.076 80.4707L150.014 80.5488C149.764 80.5371 149.24 80.5176 148.451 80.4863C147.67 80.4551 147.021 80.4395 146.514 80.4395C146.107 80.4395 145.736 80.4551 145.404 80.4863C145.068 80.5254 144.861 80.5527 144.779 80.5645L144.857 79.9707Z" fill="#E6C068"/>
<path d="M161.877 80.5957C160.971 80.5957 160.268 80.3457 159.768 79.8457C159.275 79.3457 159.033 78.6387 159.033 77.7207V73.4238C159.033 73.1426 158.994 72.9551 158.924 72.8613C158.861 72.7676 158.736 72.7207 158.549 72.7207C158.463 72.7207 158.377 72.7285 158.283 72.7363C158.197 72.7363 158.143 72.7363 158.111 72.7363L158.08 72.6895L158.174 72.127C158.275 72.127 158.475 72.1348 158.768 72.1426C159.057 72.1543 159.35 72.1582 159.643 72.1582C159.869 72.1582 160.131 72.1426 160.424 72.1113C160.725 72.0801 160.916 72.0605 161.002 72.0488L160.955 72.627C160.631 72.6699 160.412 72.7441 160.299 72.8457C160.193 72.9395 160.135 73.1113 160.127 73.3613L160.018 77.1895C160.018 78.0449 160.205 78.7051 160.58 79.1738C160.955 79.6348 161.49 79.8613 162.189 79.8613C162.896 79.8613 163.439 79.6738 163.814 79.2988C164.189 78.916 164.377 78.3691 164.377 77.6582C164.365 76.9629 164.35 76.1699 164.33 75.2832C164.318 74.4004 164.307 73.7793 164.299 73.4238C164.275 73.123 164.236 72.9316 164.174 72.8457C164.119 72.7637 164.002 72.7207 163.814 72.7207C163.709 72.7207 163.6 72.7285 163.486 72.7363C163.369 72.7363 163.291 72.7363 163.252 72.7363L163.236 72.6895L163.314 72.127C163.416 72.127 163.615 72.1348 163.908 72.1426C164.197 72.1543 164.49 72.1582 164.783 72.1582C165.021 72.1582 165.271 72.1426 165.533 72.1113C165.803 72.0801 165.975 72.0605 166.049 72.0488L166.002 72.627C165.74 72.6582 165.549 72.7012 165.424 72.752C165.299 72.7949 165.209 72.8613 165.158 72.9551C165.115 73.0488 165.096 73.1855 165.096 73.3613V77.7363C165.096 78.6426 164.814 79.3457 164.252 79.8457C163.689 80.3457 162.896 80.5957 161.877 80.5957Z" fill="#E6C068"/>
<path d="M175.862 80.4395C175.589 80.4395 175.3 80.459 174.987 80.502C174.675 80.541 174.472 80.5723 174.378 80.5957L174.456 80.002C174.862 79.9199 175.132 79.8066 175.269 79.6582C175.401 79.502 175.472 79.2441 175.472 78.877L175.487 73.4238C175.487 73.1426 175.448 72.9551 175.378 72.8613C175.315 72.7676 175.19 72.7207 175.003 72.7207C174.917 72.7207 174.831 72.7285 174.737 72.7363C174.651 72.7363 174.597 72.7363 174.565 72.7363L174.534 72.6895L174.628 72.127C174.729 72.127 174.925 72.1348 175.206 72.1426C175.495 72.1543 175.784 72.1582 176.065 72.1582C176.366 72.1582 176.667 72.1543 176.972 72.1426C177.284 72.1348 177.495 72.123 177.612 72.1113C178.433 72.1113 179.065 72.2832 179.503 72.627C179.94 72.9629 180.159 73.4473 180.159 74.0801C180.159 74.5176 180.026 74.9082 179.769 75.252C179.507 75.5957 179.136 75.873 178.659 76.0801C179.292 76.2285 179.788 76.4707 180.144 76.8145C180.495 77.1582 180.675 77.5762 180.675 78.0645C180.675 78.502 180.534 78.916 180.253 79.2988C179.972 79.6855 179.597 79.9941 179.128 80.2207C178.659 80.4473 178.151 80.5645 177.612 80.5645C177.382 80.5645 177.116 80.541 176.815 80.502C176.315 80.459 175.995 80.4395 175.862 80.4395ZM176.472 75.877C176.604 75.8887 176.823 75.9082 177.128 75.9395C177.44 75.9629 177.694 75.9785 177.894 75.9863C177.894 76.0098 178.003 75.9629 178.222 75.8457C178.448 75.7324 178.651 75.5488 178.831 75.2988C179.019 75.0488 179.112 74.7168 179.112 74.2988C179.112 73.748 178.925 73.3379 178.55 73.0645C178.183 72.7949 177.612 72.6582 176.831 72.6582C176.737 72.6582 176.675 72.6816 176.644 72.7207C176.62 72.7637 176.604 72.8457 176.597 72.9707C176.542 73.7949 176.503 74.7637 176.472 75.877ZM176.394 79.002C176.394 79.3262 176.503 79.5605 176.722 79.7051C176.948 79.8418 177.335 79.9082 177.878 79.9082C178.397 79.9082 178.804 79.7637 179.097 79.4707C179.397 79.1816 179.55 78.791 179.55 78.2988C179.55 77.8301 179.401 77.4473 179.112 77.1426C178.819 76.8418 178.382 76.6387 177.8 76.5332L176.456 76.5645L176.394 79.002Z" fill="#E6C068"/>
</svg>
